<svg id="Capa_1" enable-background="new 0 0 512 512" height="512" viewBox="0 0 512 512" width="512" xmlns="http://www.w3.org/2000/svg"><g id="XMLID_1093_"><path id="XMLID_3724_" d="m10 178.855h492v323.143h-492z" fill="#ff7a7a" transform="matrix(-1 0 0 -1 512 680.852)"/><path id="XMLID_3721_" d="m427 105.16h-342l-75 75.326 161.335 161.334h169.33l161.335-161.334z" fill="#cbf4fb"/><path id="XMLID_1633_" d="m448 231.43v-221.429h-384v219.75l104.822 106.501h173.517z" fill="#fff"/><path id="XMLID_2210_" d="m500.843 501.998-160.178-160.178h-169.33l-160.178 160.178z" fill="#ff9b9b"/><g id="XMLID_1811_"><path id="XMLID_1715_" d="m271.445 116.594-22.883-22.883c-8.169-8.169-8.169-21.414 0-29.583 8.169-8.169 21.414-8.169 29.583 0 8.169-8.169 21.414-8.169 29.583 0 8.169 8.169 8.169 21.414 0 29.583l-22.883 22.883c-3.7 3.7-9.699 3.7-13.4 0z" fill="#ff7a7a"/></g><g id="XMLID_299_"><g id="XMLID_300_"><g id="XMLID_301_"><path id="XMLID_302_" d="m509.071 171.783-51.071-51.071v-110.711c0-5.523-4.477-10-10-10h-384c-5.523 0-10 4.477-10 10v110.711l-51.071 51.071c-1.875 1.876-2.929 4.419-2.929 7.072v323.143c0 5.523 4.477 10 10 10h201.065c5.523 0 10-4.477 10-10s-4.477-10-10-10h-175.766l140.178-140.178h161.047l140.176 140.178h-175.635c-5.523 0-10 4.477-10 10s4.477 10 10 10h200.935c5.523 0 10-4.477 10-10v-323.143c0-2.653-1.054-5.196-2.929-7.072zm-17.071 307.229-138.007-138.007 138.007-138.008zm-4.142-300.158-29.858 29.858v-59.715zm-49.858-158.853v208.711l-103.108 103.108h-157.784l-103.108-103.108v-208.711zm-418 182.996 138.008 138.008-138.008 138.007zm34 5.715-29.858-29.858 29.858-29.857z"/><path id="XMLID_2072_" d="m256 491.999c-2.63 0-5.21 1.07-7.07 2.93s-2.93 4.44-2.93 7.07 1.07 5.21 2.93 7.07 4.44 2.93 7.07 2.93 5.21-1.07 7.07-2.93 2.93-4.44 2.93-7.07-1.07-5.21-2.93-7.07-4.44-2.93-7.07-2.93z"/><path id="XMLID_2073_" d="m116.127 238.223c5.523 0 10-4.477 10-10v-37.22c0-5.515 4.486-10.001 10.001-10.001 5.497 0 9.97 4.459 9.998 9.95 0 .017-.001.034-.001.051l.004 37.22c0 5.523 4.477 10 10 10s10-4.477 10-10v-37.22c0-.017-.001-.034-.001-.051.028-5.491 4.501-9.95 9.998-9.95 5.515 0 10.001 4.486 10.001 10.001v37.22c0 5.523 4.477 10 10 10s10-4.477 10-10v-37.22c0-16.542-13.458-30.001-30.001-30.001-7.677 0-14.687 2.902-19.999 7.662-5.312-4.76-12.322-7.662-19.999-7.662-4.385 0-8.549.954-12.308 2.652-1.834-2.207-4.599-3.613-7.693-3.613-5.523 0-10 4.477-10 10v58.182c0 5.523 4.477 10 10 10z"/><path id="XMLID_2074_" d="m323.82 163.654c-1.834-2.207-4.599-3.613-7.693-3.613-5.523 0-10 4.477-10 10v58.182c0 5.523 4.477 10 10 10s10-4.477 10-10v-37.22c0-5.515 4.486-10.001 10.001-10.001 5.497 0 9.97 4.459 9.998 9.95 0 .017-.001.034-.001.051l.004 37.22c0 5.523 4.477 10 10 10s10-4.477 10-10v-37.22c0-.017-.001-.034-.001-.051.028-5.491 4.501-9.95 9.998-9.95 5.515 0 10.001 4.486 10.001 10.001v37.22c0 5.523 4.477 10 10 10s10-4.477 10-10v-37.22c0-16.542-13.458-30.001-30.001-30.001-7.677 0-14.687 2.902-19.999 7.662-5.312-4.76-12.322-7.662-19.999-7.662-4.385.001-8.549.954-12.308 2.652z"/><path id="XMLID_2105_" d="m256.127 238.133c16.542 0 30-13.458 30-30v-18c0-16.542-13.458-30-30-30s-30 13.458-30 30v18c0 16.542 13.458 30 30 30zm-10-48c0-5.514 4.486-10 10-10s10 4.486 10 10v18c0 5.514-4.486 10-10 10s-10-4.486-10-10z"/><path id="XMLID_2108_" d="m264.375 123.665c3.797 3.797 8.783 5.695 13.771 5.694 4.986 0 9.975-1.898 13.771-5.694l22.883-22.883c5.839-5.84 9.056-13.604 9.056-21.863s-3.216-16.023-9.056-21.863c-9.91-9.909-24.925-11.673-36.654-5.292-11.728-6.381-26.745-4.616-36.655 5.292-5.839 5.84-9.056 13.604-9.056 21.863s3.216 16.023 9.056 21.863zm-8.741-52.466c2.128-2.129 4.924-3.193 7.72-3.193s5.592 1.064 7.72 3.193c3.906 3.905 10.238 3.905 14.142 0 4.258-4.257 11.185-4.257 15.441 0 2.062 2.062 3.198 4.804 3.198 7.72s-1.136 5.658-3.198 7.72l-22.511 22.512-22.512-22.512c-2.062-2.062-3.198-4.804-3.198-7.72s1.135-5.658 3.198-7.72z"/><path id="XMLID_2109_" d="m198.145 129.369c5.523 0 10-4.477 10-10v-61.355c0-5.523-4.477-10-10-10s-10 4.477-10 10v61.354c0 5.524 4.477 10.001 10 10.001z"/></g></g></g></g></svg>