<svg id="Capa_1" enable-background="new 0 0 512 512" height="512" viewBox="0 0 512 512" width="512" xmlns="http://www.w3.org/2000/svg"><g id="XMLID_1604_"><path id="XMLID_2941_" d="m206.396 161.962v-54.963c0-53.571 43.428-96.999 96.999-96.999 53.571 0 96.999 43.428 96.999 96.999v54.963c0 26.401-21.402 47.804-47.804 47.804h-98.391c-26.401 0-47.803-21.403-47.803-47.804z" fill="#868eaf"/><path id="XMLID_2746_" d="m270.832 209.766h-46.042c-36.451 0-66 29.549-66 66v109.074h144.605 144.605v-109.074c0-36.451-29.549-66-66-66h-46.95z" fill="#fff"/><path id="XMLID_2745_" d="m270.832 209.766h-46.042c-36.451 0-66 29.549-66 66v109.074h144.605 144.605v-109.074c0-36.451-29.549-66-66-66h-46.95z" fill="#b4b1ec"/><path id="XMLID_2744_" d="m357.963 102.313v30.608c0 30.137-24.431 54.568-54.568 54.568-30.137 0-54.568-24.431-54.568-54.568v-30.608h34.446l28.808-10.128 25.669 10.128z" fill="#d0a084"/><path id="XMLID_2743_" d="m330.679 182.99v29.899c0 15.069-12.215 27.284-27.284 27.284-15.069 0-27.284-12.215-27.284-27.284v-29.899z" fill="#d0a084"/><path id="XMLID_2694_" d="m14.727 422.633 79.439-79.439c22.548-22.548 53.129-35.215 85.016-35.215 22.324 0 43.733 8.868 59.519 24.653h65.579c15.244 0 27.602 12.358 27.602 27.602 0 15.244-12.358 27.602-27.602 27.602h-76.019 28.5 68.745c27.755 0 54.373-11.026 73.999-30.651l49.459-49.459c9.892-9.892 25.529-11.072 36.793-2.774 13.944 10.272 15.473 30.548 3.227 42.794l-49.101 49.101c-33.865 33.865-79.795 52.89-127.687 52.89h-138.891l-52.263 52.263z" fill="#ffd0c6"/><g id="XMLID_2679_" fill="#cbf4fb"><circle id="XMLID_2687_" cx="169.412" cy="462.663" r="24"/><circle id="XMLID_2686_" cx="135.47" cy="428.721" r="24"/><circle id="XMLID_2685_" cx="101.529" cy="394.78" r="24"/><circle id="XMLID_2684_" cx="67.588" cy="360.839" r="24"/></g><g id="XMLID_1154_"><path id="XMLID_2854_" d="m347.256 379.854-38.47-38.47c-12.413-12.413-12.413-32.539 0-44.952 12.413-12.413 32.539-12.413 44.952 0 12.413-12.413 32.539-12.413 44.952 0 12.413 12.413 12.413 32.539 0 44.952l-38.47 38.47c-3.58 3.58-9.384 3.58-12.964 0z" fill="#ff7a7a"/></g><g id="XMLID_2069_"><path id="XMLID_2071_" d="m85.106 162.716-38.47-38.47c-12.413-12.413-12.413-32.539 0-44.952 12.413-12.413 32.539-12.413 44.952 0 12.413-12.413 32.539-12.413 44.952 0 12.413 12.413 12.413 32.539 0 44.952l-38.47 38.47c-3.58 3.581-9.384 3.581-12.964 0z" fill="#ff7a7a"/></g><g id="XMLID_1650_"><g id="XMLID_1651_"><path id="XMLID_1667_" d="m78.034 169.788c3.737 3.736 8.646 5.604 13.554 5.604s9.816-1.868 13.554-5.604l38.47-38.47c16.292-16.293 16.292-42.802 0-59.095-14.104-14.103-35.864-15.997-52.023-5.685-16.16-10.312-37.918-8.418-52.022 5.685-16.292 16.293-16.292 42.802 0 59.095zm-24.326-83.422c4.114-4.115 9.585-6.381 15.404-6.381s11.29 2.266 15.404 6.381c3.906 3.904 10.236 3.904 14.143 0 4.114-4.115 9.586-6.381 15.405-6.381 5.818 0 11.29 2.266 15.404 6.381 8.494 8.494 8.494 22.315 0 30.81l-37.881 37.881-37.88-37.881c-8.493-8.494-8.493-22.316.001-30.81z"/><path id="XMLID_1653_" d="m507.164 324.857c-.84-11.141-6.481-21.331-15.477-27.957-10.056-7.406-22.503-9.287-33.688-5.918v-15.217c0-37.392-27.151-68.541-62.769-74.823 9.411-10.286 15.163-23.973 15.163-38.98v-54.963c0-58.999-48-106.999-106.999-106.999s-106.999 48-106.999 106.999v54.963c0 15.007 5.752 28.695 15.163 38.981-35.617 6.282-62.769 37.431-62.769 74.823v25.769c-22.367 5.323-42.952 16.52-59.884 32.821-6.023-4.867-13.466-7.516-21.317-7.516-9.082 0-17.62 3.537-24.041 9.959 0 0 0 0-.001.001-6.422 6.421-9.958 14.959-9.958 24.04 0 7.842 2.642 15.276 7.496 21.294l-33.428 33.428c-3.905 3.905-3.905 10.237 0 14.143 1.953 1.952 4.512 2.929 7.071 2.929s5.118-.977 7.071-2.929l36.228-36.228c3.055.89 6.251 1.358 9.521 1.362.015 8.688 3.327 17.371 9.941 23.984 6.613 6.613 15.295 9.925 23.982 9.94.011 9.066 3.546 17.589 9.959 24.001 6.613 6.613 15.295 9.925 23.982 9.94.004 3.242.465 6.412 1.341 9.443l-22.782 22.782c-3.905 3.905-3.905 10.237 0 14.143 1.953 1.952 4.512 2.929 7.071 2.929s5.118-.977 7.071-2.929l19.949-19.949c6.028 4.884 13.483 7.541 21.349 7.541 9.082 0 17.62-3.537 24.041-9.959 6.423-6.422 9.959-14.96 9.959-24.041 0-.983-.049-1.958-.131-2.926h108.916c10.081 0 20.239-.81 30.19-2.405 5.453-.875 9.164-6.005 8.29-11.458-.875-5.453-6.006-9.166-11.458-8.29-8.907 1.429-17.999 2.153-27.022 2.153h-117.68c-.346-.378-.698-.751-1.062-1.115-6.412-6.413-14.934-9.947-24-9.958-.014-8.688-3.327-17.371-9.94-23.984-6.618-6.617-15.307-9.93-24-9.941-.01-8.693-3.324-17.383-9.942-24-6.613-6.613-15.295-9.926-23.982-9.94-.004-3.27-.472-6.466-1.362-9.521l1.012-1.012c20.819-20.82 48.501-32.286 77.945-32.286 19.812 0 38.439 7.715 52.447 21.725 1.875 1.875 4.419 2.929 7.071 2.929h58.173c1.414 2.048 3.02 4.002 4.841 5.823l18.726 18.726c-2.731 6.293-9.053 10.655-16.161 10.655h-76.02c-5.522 0-10 4.478-10 10s4.478 10 10 10h97.245c30.623 0 59.414-11.926 81.07-33.58l49.459-49.459c6.444-6.447 16.45-7.201 23.791-1.794 4.298 3.166 6.993 8.034 7.395 13.357.4 5.322-1.534 10.539-5.309 14.313l-49.1 49.102c-5.077 5.076-10.524 9.874-16.188 14.26-4.367 3.382-5.166 9.663-1.785 14.029 1.971 2.545 4.927 3.879 7.914 3.878 2.139 0 4.294-.683 6.115-2.093 6.329-4.901 12.414-10.261 18.086-15.932l49.101-49.102c7.899-7.9 11.949-18.82 11.109-29.961zm-449.476 26.083c.001 0 .001 0 0 0 2.646-2.645 6.16-4.102 9.9-4.102 3.739 0 7.254 1.457 9.899 4.102 2.644 2.645 4.101 6.159 4.101 9.898 0 3.74-1.457 7.255-4.102 9.9-2.645 2.644-6.159 4.1-9.898 4.1-3.74 0-7.255-1.456-9.9-4.101-2.644-2.645-4.1-6.159-4.1-9.899.001-3.738 1.457-7.253 4.1-9.898zm125.723 111.723c0 3.739-1.456 7.254-4.101 9.899-2.645 2.644-6.159 4.101-9.899 4.101-3.739 0-7.254-1.457-9.899-4.102-2.644-2.645-4.101-6.159-4.101-9.898 0-3.74 1.457-7.255 4.101-9.899.001 0 .001 0 .001-.001 2.645-2.644 6.159-4.1 9.898-4.1 3.74 0 7.255 1.456 9.9 4.101 2.644 2.644 4.1 6.159 4.1 9.899zm-38.04-24.042c-5.46 5.459-14.342 5.458-19.8 0-2.645-2.645-4.102-6.16-4.102-9.899 0-3.737 1.455-7.249 4.094-9.893.002-.002.005-.004.007-.007 2.729-2.729 6.314-4.094 9.899-4.094s7.17 1.364 9.899 4.094c5.461 5.458 5.46 14.34.003 19.799zm-33.941-33.941c-5.461 5.459-14.343 5.458-19.8.001-5.458-5.459-5.458-14.341 0-19.8 5.461-5.457 14.343-5.456 19.799 0 5.459 5.458 5.459 14.341.001 19.799zm104.965-297.681c0-47.972 39.027-86.999 86.999-86.999s86.999 39.027 86.999 86.999v54.963c0 20.845-16.959 37.804-37.804 37.804h-11.911v-14.178c16.492-11.709 27.284-30.945 27.284-52.666v-30.607c0-5.522-4.478-10-10-10h-18.131c-6.183 0-11.979-2.64-16.042-7.1 2.517-5.652 3.928-11.901 3.928-18.476 0-5.522-4.478-10-10-10s-10 4.478-10 10c0 14.103-11.473 25.576-25.575 25.576h-33.316c-5.522 0-10 4.478-10 10v30.607c0 21.721 10.792 40.957 27.284 52.667v14.178h-11.912c-20.845 0-37.804-16.959-37.804-37.804v-54.964zm42.432 5.314h23.316c11.273 0 21.595-4.123 29.56-10.929 7.573 6.917 17.559 10.929 28.129 10.929h8.131v20.607c0 24.575-19.993 44.568-44.568 44.568-24.574 0-44.567-19.993-44.567-44.568v-20.607zm27.284 82.808c5.505 1.532 11.297 2.368 17.283 2.368 5.987 0 11.779-.836 17.284-2.368v17.768c0 9.53-7.754 17.284-17.284 17.284s-17.283-7.754-17.283-17.284zm-43.399 127.512c-17.394-15.93-39.791-24.653-63.529-24.653-3.488 0-6.953.143-10.393.412v-22.626c0-30.879 25.121-56 56-56h41.968c3.237 17.283 18.429 30.407 36.637 30.407s33.4-13.124 36.638-30.407h41.967c30.879 0 56 25.121 56 56v28.782l-20.467 20.467c1.851-12.631-2.072-25.953-11.771-35.653-14.104-14.103-35.863-15.997-52.023-5.685-16.158-10.312-37.919-8.418-52.023 5.685-9.092 9.092-13.104 21.366-12.048 33.271zm73.145-19.129c4.247-4.247 9.826-6.371 15.404-6.371 5.579 0 11.158 2.124 15.405 6.371 3.906 3.904 10.236 3.904 14.143 0 8.493-8.493 22.314-8.495 30.81 0 8.494 8.494 8.494 22.315 0 30.81l-37.881 37.88-37.881-37.879c-8.494-8.496-8.494-22.317 0-30.811z"/><path id="XMLID_1652_" d="m384 424.84c-2.63 0-5.21 1.07-7.07 2.93s-2.93 4.44-2.93 7.07 1.069 5.2 2.93 7.07c1.86 1.859 4.44 2.93 7.07 2.93s5.21-1.07 7.069-2.93c1.86-1.86 2.931-4.44 2.931-7.07s-1.07-5.21-2.931-7.07c-1.859-1.86-4.439-2.93-7.069-2.93z"/></g></g></g></svg>